<?xml version="1.0" standalone="no"?>
<!DOCTYPE svg PUBLIC "-//W3C//DTD SVG 20010904//EN"
 "http://www.w3.org/TR/2001/REC-SVG-20010904/DTD/svg10.dtd">
<svg version="1.0" xmlns="http://www.w3.org/2000/svg"
 width="128.000000pt" height="128.000000pt" viewBox="0 0 128.000000 128.000000"
 preserveAspectRatio="xMidYMid meet">
<metadata>
Created by potrace 1.14, written by Peter Selinger 2001-2017
</metadata>
<g transform="translate(0.000000,128.000000) scale(0.100000,-0.100000)"
fill="#000000" stroke="none">
<path d="M882 1205 c-50 -59 -68 -75 -90 -75 -33 0 -179 -45 -197 -60 -11 -9
-33 -3 -97 28 -71 34 -138 56 -197 65 -8 1 -23 -12 -33 -30 -25 -41 -26 -122
-3 -239 17 -89 17 -91 -4 -132 -11 -22 -27 -76 -35 -119 -8 -43 -20 -98 -26
-123 -17 -65 -7 -166 21 -224 31 -64 55 -75 45 -20 l-8 39 25 -37 c23 -33 43
-109 62 -236 6 -36 10 -42 31 -42 29 0 31 13 4 40 -11 11 -20 32 -20 48 0 15
-3 38 -7 52 l-7 25 40 -30 c53 -40 71 -64 79 -102 9 -49 38 -44 56 10 7 23 25
52 38 65 14 13 18 22 11 22 -8 0 -23 -9 -35 -20 -30 -28 -71 -13 -90 35 -20
45 -20 45 14 45 64 0 82 24 27 34 -34 7 -104 71 -91 84 3 4 10 0 14 -7 6 -9
11 -10 15 -2 4 6 4 11 1 11 -3 0 6 11 21 25 28 26 54 33 54 15 0 -6 -10 -14
-22 -19 l-22 -8 27 -26 c14 -15 34 -27 44 -27 26 1 96 52 108 78 5 12 13 22
17 22 16 0 7 30 -12 40 -11 6 -20 17 -20 24 0 18 -46 29 -70 16 -10 -5 -33
-10 -51 -10 -18 0 -40 -6 -48 -14 -9 -8 -23 -16 -31 -18 -8 -2 -17 -12 -20
-22 -3 -11 -12 -22 -19 -24 -11 -4 -13 3 -7 29 19 100 74 225 95 217 10 -4 81
-95 81 -104 0 -4 -26 -4 -57 -1 -38 4 -49 3 -33 -2 14 -5 46 -9 72 -10 26 -1
49 -5 53 -10 10 -17 109 -69 144 -76 20 -4 36 -3 40 3 7 12 104 17 143 7 16
-4 53 -4 84 0 52 6 57 9 71 42 8 20 21 43 30 51 14 14 15 11 8 -29 -7 -45 -21
-74 -50 -103 -23 -23 -10 -36 36 -36 53 0 47 -23 -7 -30 -58 -8 -154 -81 -154
-116 0 -19 -64 -49 -132 -64 -49 -10 -61 -9 -80 4 -24 17 -68 19 -108 5 -18
-6 -10 -7 25 -3 45 5 53 3 76 -23 34 -35 43 -66 29 -93 -11 -20 -9 -20 185
-20 184 0 195 1 195 19 0 10 13 35 29 55 l29 36 24 -33 c14 -17 30 -42 37 -54
12 -23 31 -31 31 -13 0 5 -11 26 -26 47 -20 30 -25 48 -23 93 1 30 -2 77 -6
103 -7 40 -4 55 15 92 13 25 29 45 37 45 14 0 18 56 7 98 -7 24 -24 31 -24 9
0 -25 -63 -98 -101 -118 -44 -22 -69 -17 -46 9 14 17 42 90 57 150 9 35 -3 52
-18 26 -7 -13 -10 -7 -14 23 -7 46 -72 184 -99 209 -25 22 -24 16 6 -43 13
-26 27 -66 31 -87 l7 -39 -44 7 c-24 4 -47 14 -52 22 -5 8 -12 12 -17 9 -11
-7 -87 69 -92 92 -3 10 -8 -18 -12 -63 -4 -44 -11 -87 -16 -94 -10 -17 -30 -4
-30 21 0 10 -5 19 -11 19 -13 0 -3 -68 17 -117 10 -23 11 -39 5 -52 -6 -10 -7
-21 -4 -25 15 -14 -56 -4 -90 13 -37 19 -38 19 -32 0 4 -10 2 -19 -3 -19 -17
0 -77 46 -77 58 0 7 -11 18 -25 25 -47 23 -120 179 -120 255 0 52 -10 34 -26
-50 -14 -69 -57 -192 -76 -212 -4 -6 -8 3 -9 20 l-1 29 -15 -35 c-24 -56 -13
-164 23 -225 16 -28 38 -58 49 -67 19 -16 19 -17 1 -18 -28 0 -98 50 -125 89
-12 20 -25 51 -28 71 -8 63 -13 81 -23 75 -5 -3 -7 -38 -5 -78 4 -58 3 -65 -5
-37 -5 19 -8 78 -6 130 4 101 31 186 90 278 14 23 26 51 26 62 0 20 52 76 151
162 79 70 93 77 176 104 91 29 150 32 155 7 2 -10 13 2 31 35 15 28 51 76 78
107 40 42 47 55 32 55 -11 0 -44 -31 -81 -75z m-453 -186 l23 -31 -33 -34
c-36 -37 -49 -42 -49 -19 0 8 -4 15 -10 15 -5 0 -1 9 10 20 12 12 18 25 15 30
-4 6 -1 10 6 10 6 0 9 8 6 20 -8 29 6 25 32 -11z m485 -375 c9 -3 14 -10 11
-14 -3 -4 5 -8 18 -8 12 0 45 -7 72 -16 l50 -16 -40 3 c-28 3 -54 -4 -84 -20
-54 -28 -71 -29 -71 -3 0 11 4 20 8 20 5 0 7 14 4 30 -4 30 3 35 32 24z m186
-64 c0 -5 -2 -10 -4 -10 -3 0 -8 5 -11 10 -3 6 -1 10 4 10 6 0 11 -4 11 -10z
m-214 -117 c-10 -10 -19 5 -10 18 6 11 8 11 12 0 2 -7 1 -15 -2 -18z m280
-197 c28 -19 46 -78 34 -112 -12 -31 -59 -34 -67 -4 -3 11 -9 20 -14 20 -12 0
-11 -7 1 -31 9 -15 7 -21 -5 -25 -25 -10 -61 4 -74 28 -11 22 -11 22 -6 -4 10
-50 -60 -61 -79 -12 -11 30 -6 83 10 96 8 7 25 21 36 32 42 38 115 43 164 12z
m-92 -205 c10 -15 -21 -33 -51 -29 -17 2 -29 10 -31 21 -3 14 4 17 37 17 22 0
42 -4 45 -9z"/>
<path d="M1101 194 c0 -11 3 -14 6 -6 3 7 2 16 -1 19 -3 4 -6 -2 -5 -13z"/>
<path d="M985 1247 c-7 -18 -17 -72 -21 -120 -4 -48 -11 -87 -15 -87 -5 0 -9
-4 -9 -10 0 -5 6 -10 13 -10 26 0 117 -50 149 -82 87 -85 159 -227 171 -338 2
-19 5 -3 5 37 1 39 -2 83 -8 98 -7 17 -7 24 0 20 23 -14 7 14 -26 46 -20 18
-47 51 -60 71 -33 51 -93 107 -151 139 -41 23 -48 32 -51 60 -4 50 12 124 26
122 7 -2 12 2 12 7 0 6 -5 10 -10 10 -7 0 -8 13 -4 35 8 44 -3 45 -21 2z"/>
<path d="M1113 1263 c3 -10 13 -37 21 -60 9 -23 21 -86 28 -139 13 -98 14 -98
45 -106 23 -6 37 -19 50 -46 l18 -37 3 34 c3 27 -4 42 -37 81 -30 36 -45 65
-56 112 -27 119 -48 178 -63 178 -9 0 -12 -6 -9 -17z"/>
<path d="M1032 1160 c8 -12 19 -18 30 -14 21 6 25 -20 6 -32 -7 -5 -4 -10 10
-15 24 -9 30 -29 10 -29 -9 -1 -8 -4 2 -13 17 -14 20 -48 5 -60 -6 -5 -2 -7 9
-5 22 3 30 54 10 62 -7 3 -10 14 -7 25 3 12 1 21 -6 21 -6 0 -11 16 -11 35 0
37 -8 43 -28 23 -9 -9 -12 -8 -12 5 0 9 -7 17 -15 17 -13 0 -13 -3 -3 -20z"/>
<path d="M107 943 c-4 -3 -7 -18 -7 -32 l0 -25 -29 28 c-34 33 -40 23 -32 -53
6 -57 26 -78 39 -41 7 20 9 20 21 6 26 -31 41 -19 41 32 0 74 -13 106 -33 85z"/>
<path d="M587 913 c11 -79 72 -172 122 -188 37 -11 23 -27 -19 -23 -22 2 -40
0 -40 -5 0 -15 -42 21 -66 57 -19 27 -24 48 -24 93 0 33 5 64 12 71 8 8 8 12
1 12 -16 0 -23 -25 -23 -89 0 -48 5 -65 30 -99 45 -63 68 -69 153 -46 25 8 21
23 -10 35 -16 6 -39 20 -52 32 -32 30 -71 114 -71 154 0 18 -4 33 -9 33 -6 0
-7 -17 -4 -37z"/>
<path d="M116 741 c-15 -16 -22 -18 -37 -8 -29 18 -35 0 -11 -33 12 -16 22
-43 22 -59 0 -16 5 -33 11 -37 17 -10 30 17 24 49 -3 16 2 42 11 59 19 37 5
57 -20 29z"/>
<path d="M782 680 c0 -14 2 -19 5 -12 2 6 2 18 0 25 -3 6 -5 1 -5 -13z"/>
<path d="M62 548 c-14 -14 -16 -118 -2 -118 5 0 13 15 18 33 10 40 25 41 32 3
3 -16 11 -31 19 -34 11 -4 13 5 8 48 -4 29 -12 58 -18 66 -14 17 -41 18 -57 2z"/>
<path d="M1012 370 c0 -14 2 -19 5 -12 2 6 2 18 0 25 -3 6 -5 1 -5 -13z"/>
<path d="M985 370 c-3 -5 -1 -18 4 -27 9 -16 10 -14 11 10 0 28 -5 34 -15 17z"/>
<path d="M962 350 c0 -14 2 -19 5 -12 2 6 2 18 0 25 -3 6 -5 1 -5 -13z"/>
<path d="M783 308 c-40 -8 -43 -12 -43 -42 0 -66 84 -94 135 -46 31 29 32 50
2 78 -25 24 -31 25 -94 10z"/>
<path d="M540 221 c0 -16 5 -33 10 -36 6 -4 10 6 10 24 0 16 -4 33 -10 36 -6
4 -10 -6 -10 -24z"/>
<path d="M582 220 c0 -19 2 -27 5 -17 2 9 2 25 0 35 -3 9 -5 1 -5 -18z"/>
<path d="M602 230 c0 -14 2 -19 5 -12 2 6 2 18 0 25 -3 6 -5 1 -5 -13z"/>
<path d="M572 23 c2 -9 8 -18 15 -20 7 -3 9 3 6 16 -6 25 -26 28 -21 4z"/>
<path d="M690 21 c0 -12 5 -21 10 -21 6 0 10 6 10 14 0 8 -4 18 -10 21 -5 3
-10 -3 -10 -14z"/>
</g>
</svg>
